<svg width="40" height="40" viewBox="0 0 40 40" fill="none" xmlns="http://www.w3.org/2000/svg">
<g clip-path="url(#clip0_20005153_1500)">
<path d="M19.9232 40C19.6836 40 19.4443 39.9451 19.2243 39.8352C19.0415 39.7437 14.6964 37.5406 10.1502 32.5989C7.48542 29.7028 5.2967 26.4551 3.64448 22.9465C1.58088 18.5641 0.356209 13.7662 0.00373083 8.68591C-0.0249557 8.27148 0.112679 7.86285 0.385811 7.55005C0.659248 7.23724 1.0456 7.0459 1.46033 7.01874C4.32197 6.83075 6.56379 4.4342 6.56379 1.5625C6.56379 0.699463 7.26325 0 8.12629 0H31.8763C32.739 0 33.4388 0.699463 33.4388 1.5625C33.4388 4.43237 35.6791 6.82892 38.5392 7.01874C38.9603 7.04651 39.3522 7.24365 39.6256 7.565C39.8994 7.88635 40.0312 8.30475 39.9915 8.72498C39.4572 14.3658 37.8995 19.6417 35.3617 24.4064C34.9558 25.1682 34.0095 25.4565 33.248 25.051C32.4863 24.6454 32.1979 23.699 32.6035 22.9373C34.7294 18.9462 36.1109 14.5578 36.7185 9.87366C33.519 9.03015 31.0612 6.38428 30.4569 3.125H9.54566C8.93897 6.39832 6.46308 9.05243 3.24378 9.88403C4.06501 17.7667 7.12897 24.6588 12.3627 30.3882C15.4957 33.8174 18.5673 35.8408 19.9143 36.6415C21.3883 35.7449 24.9531 33.3356 28.4235 29.158C28.975 28.494 29.9598 28.403 30.6238 28.9545C31.2876 29.5059 31.3788 30.491 30.8274 31.1548C25.8884 37.1002 20.8472 39.7198 20.6348 39.8285C20.4114 39.9429 20.1673 40 19.9232 40Z" fill="#6366F1"/>
<path d="M21.1304 31.5443C21.6507 30.8555 21.5143 29.8759 20.8261 29.3556C19.4751 28.3347 18.1967 27.1772 17.0261 25.9156C13.6225 22.2462 11.3132 17.935 10.1532 13.0882C10.7782 12.6054 11.3663 12.0719 11.9092 11.4945C12.8095 10.5366 13.5782 9.46695 14.1941 8.31461C14.6005 7.5535 14.3131 6.60684 13.552 6.20004C12.7909 5.79355 11.8442 6.08102 11.4377 6.84213C10.9516 7.75156 10.3443 8.59659 9.63259 9.35403C9.00515 10.0215 8.30203 10.6138 7.54336 11.1152C7.01113 11.4668 6.74593 12.1067 6.8738 12.732C8.06338 18.549 10.708 23.6997 14.7351 28.0409C16.0297 29.4364 17.4451 30.7179 18.942 31.8488C19.224 32.0619 19.5548 32.1647 19.8828 32.1647C20.3559 32.1647 20.8234 31.9508 21.1304 31.5443Z" fill="#D946EF"/>
</g>
<defs>
<clipPath id="clip0_20005153_1500">
<rect width="40" height="40" fill="white"/>
</clipPath>
</defs>
</svg>
